<svg xmlns="http://www.w3.org/2000/svg" viewBox="0 0 31 27"><g fill="#00B2FF"><path d="M15.6 8.2c-.3 0-.6.3-.6.6s.3.6.6.6.6-.3.6-.6-.3-.6-.6-.6z"/><path d="M29 11.8h-2.3c-1.2-3.5-3-9.6-6.1-11.3-1.6-.9-3.1-.3-3.7 1-.2.5-.7.8-1.2.8s-1-.3-1.2-.8C14 .3 12.5-.3 11 .4 7.8 2 6 8.4 4.7 11.9H2.3c-1 0-1.8.8-1.8 1.8s.8 1.8 1.8 1.8H29c1 0 1.8-.8 1.8-1.8-.1-1.1-.9-1.9-1.8-1.9zM6.7 9.4h6.6c.3 0 .6-.3.6-.6s-.3-.6-.6-.6H7.1c1.8-5 3.4-6.4 4.3-6.8.9-.5 1.7-.1 2 .5.4.9 1.3 1.5 2.3 1.5 1 0 1.9-.5 2.3-1.5.3-.6 1-1 2-.4.9.5 2.5 2 4.2 6.7H18c-.3 0-.6.3-.6.6s.3.6.6.6h6.6l.8 2.4H5.8c.2-.6.6-1.5.9-2.4zM29 14.2H2.3c-.3 0-.6-.3-.6-.6s.3-.6.6-.6H29c.3 0 .6.3.6.6-.1.3-.3.6-.6.6zM26.2 17.8h-9.4c-.3 0-.6.3-.6.6v.6H15v-.6c0-.3-.3-.6-.6-.6H5c-.3 0-.6.3-.6.6v2.4c0 3 2.4 5.4 5.3 5.4 2.2 0 4.2-1.4 5-3.5.6-.3 1.3-.3 1.9 0 .8 2.1 2.7 3.5 5 3.5 2.9 0 5.3-2.4 5.3-5.4v-2.4c-.1-.4-.3-.6-.7-.6zm-12.3 2.9c0 2.3-1.8 4.2-4.1 4.2S5.7 23 5.7 20.7v-1.8H14v1.8zm1.1.6v-1.2h1.2v1.2c-.4-.1-.8-.1-1.2 0zm10.7-.6c0 2.3-1.9 4.2-4.1 4.2-2.3 0-4.1-1.9-4.1-4.2v-1.8h8.3v1.8z"/><path d="M9.7 23.7c.3 0 .6-.3.6-.6s-.3-.6-.6-.6c-1 0-1.8-.8-1.8-1.8 0-.3-.3-.6-.6-.6s-.6.3-.6.6c.1 1.7 1.4 3 3 3zM21.5 23.7c1.6 0 2.9-1.3 2.9-3 0-.3-.3-.6-.6-.6s-.6.3-.6.6c0 1-.8 1.8-1.8 1.8-.3 0-.6.3-.6.6.1.3.4.6.7.6z"/></g></svg>