<svg xmlns="http://www.w3.org/2000/svg" viewBox="0 0 32 33"><g fill="#00B2FF"><path d="M28.4 26.2c.3-.5.5-1.1.5-1.7v-3.8c0-.3-.3-.6-.6-.6h-2.8c-1.3 0-2.3 1.1-2.3 2.4v2.1c0 .6.2 1.2.5 1.7-.4.1-.8.2-1.2.4-.9-1.3-2.3-2.2-3.9-2.4.6-.7.9-1.5.9-2.5v-5.1c0-.3-.3-.6-.6-.6h-3.8c-1.6 0-2.9 1.3-2.9 3v2.8c0 .9.4 1.8.9 2.5-1.6.2-3 1.1-3.9 2.4-.4-.2-.8-.3-1.2-.4.3-.5.5-1.1.5-1.7v-3.8c0-.3-.3-.6-.6-.6H5.3C4 20.1 3 21.1 3 22.4v2.1c0 .6.2 1.2.5 1.7-1.9.3-3.4 2-3.4 4v1.9c0 .3.3.6.6.6h30.4c.3 0 .6-.3.6-.6v-1.9c0-2-1.4-3.7-3.3-4zM4.2 22.4c0-.6.5-1.1 1.1-1.1h2.1v.8c0 .4-.3.7-.7.7H4.2v-.4zm0 1.7h2.6c.2 0 .5 0 .7-.1v.6c0 .9-.7 1.6-1.6 1.6s-1.6-.7-1.6-1.6v-.5zm2 3.3l-.4.4-.4-.4h.8zm2.2 2.2v1.9h-7v-1.2c0-1.4 1-2.6 2.3-2.8l1.7 1.7c.1.1.3.2.4.2.2 0 .3-.1.4-.2l1.7-1.7c.3 0 .6.1.8.3-.2.5-.3 1.1-.3 1.8zm7.5-5.4c-1.3 0-2.4-1.1-2.4-2.5v-.8h3.7c.4 0 .8-.1 1.1-.3v1.1c0 1.4-1 2.5-2.4 2.5zm1.1 1.3l-1.1 1.1-1.1-1.1H17zM13.5 19c0-.9.8-1.7 1.7-1.7h3.1v1.3c0 .6-.5 1.2-1.1 1.2h-3.7V19zm8.7 12.5H9.7v-1.3h4c.3 0 .6-.3.6-.6s-.3-.6-.6-.6h-4c.3-1.8 1.7-3.2 3.4-3.4l2.3 2.4c.1.1.3.2.4.2.2 0 .3-.1.4-.2l2.3-2.4c2 .3 3.5 2 3.5 4v1.9zm2.2-9.1c0-.6.5-1.1 1.1-1.1h2.1v.8c0 .4-.3.7-.7.7h-2.6v-.4zm0 1.7H27c.2 0 .5 0 .7-.1v.6c0 .9-.7 1.6-1.6 1.6-.9 0-1.6-.7-1.6-1.6v-.5zm2.1 3.3l-.4.4-.4-.4h.8zm4 4.1h-7.1v-1.9c0-.6-.1-1.3-.3-1.8.3-.1.5-.2.8-.3l1.7 1.7c.1.1.3.2.4.2.2 0 .3-.1.4-.2l1.7-1.7c1.3.2 2.3 1.4 2.3 2.8v1.2zM12.9 6.4c-.2.2-.2.6 0 .9l1.7 1.8c.1.1.3.2.4.2.2 0 .3-.1.4-.2L19 5.5c.2-.2.2-.6 0-.9-.2-.2-.6-.2-.9 0l-3 3.1-1.3-1.3c-.3-.2-.7-.2-.9 0z"/><path d="M15.9 13.2c3.4 0 6.2-2.8 6.2-6.3 0-2.5-1.4-4.8-3.7-5.8-.3-.1-.7 0-.8.3-.1.3 0 .7.3.8 1.8.8 2.9 2.6 2.9 4.6 0 2.8-2.2 5.1-5 5.1s-5-2.3-5-5.1c0-2 1.1-3.8 2.9-4.6.3-.1.4-.5.3-.8-.1-.3-.5-.5-.8-.3-2.2 1-3.7 3.3-3.7 5.8.2 3.4 3 6.3 6.4 6.3z"/><path d="M15.9 1.8c.1 0 .1 0 0 0 .4 0 .6-.3.6-.6s-.3-.6-.6-.6-.6.3-.6.6.3.6.6.6zM15.9 29c-.2 0-.3.1-.4.2-.1.1-.2.3-.2.4 0 .2.1.3.2.4.1.1.3.2.4.2s.3-.1.4-.2c.1-.1.2-.3.2-.4 0-.2-.1-.3-.2-.4 0-.2-.2-.2-.4-.2z"/></g></svg>