<svg xmlns="http://www.w3.org/2000/svg" viewBox="0 0 27 26"><g fill="#CDCDCD"><path d="M13.9 11c1 0 1.8-.8 1.8-1.7 0-.9-.8-1.8-1.8-1.8s-1.8.8-1.8 1.7c0 1 .8 1.8 1.8 1.8z"/><path d="M13.7 0C6.4 0 .5 5.8.5 13s5.9 13 13.2 13 13.2-5.8 13.2-13S21 0 13.7 0zm.2 4.9c2.4 0 4.3 1.9 4.3 4.3s-2 4.3-4.4 4.3c-2.4 0-4.3-1.9-4.3-4.3s2-4.3 4.4-4.3zm4.8 10c-.1.5-.3.8-.6 1-.2.1-.4.3-.7.4-.6.3-1.2.5-1.8.6-.1 0-.1 0 0 .1l1 1 1.3 1.3c.6.6.5 1.6-.3 2-.1.1-.3.1-.4.1H17c-.3 0-.5-.2-.8-.4-.8-.7-1.5-1.5-2.3-2.2-.1-.1-.1-.1-.1 0l-2.3 2.3c-.1.1-.3.2-.4.3-.1.1-.2.1-.4.1H10.4c-.5-.1-.8-.4-1-.9-.2-.5 0-.9.3-1.3l.9-.9L12 17c.1-.1.1-.1 0-.1h-.1c-.8-.2-1.6-.5-2.4-1-.3-.2-.5-.6-.5-1.1.1-.9 1.1-1.4 1.9-.9.2.1.3.2.5.2.9.4 1.8.6 2.7.6.5 0 .9-.1 1.4-.3.5-.1.8-.4 1.3-.6.7-.4 1.6-.1 1.8.6 0 .1.1.2.1.3v.2z"/></g></svg>