<svg xmlns="http://www.w3.org/2000/svg" viewBox="0 0 202 52"><path fill="#FFF" d="M76.9 24.3c0-.7-.2-1.3-.6-1.6-.4-.4-1-.8-2-1.2-1.8-.7-3.1-1.5-3.8-2.4-.8-.9-1.2-2-1.2-3.2 0-1.5.5-2.7 1.6-3.6C72 11.4 73.3 11 75 11c1.1 0 2.1.2 2.9.7.9.5 1.5 1.1 2 1.9.5.8.7 1.8.7 2.9H77c0-.8-.2-1.5-.5-1.9-.4-.4-.9-.7-1.5-.7s-1.1.2-1.5.6c-.3.4-.5.9-.5 1.5 0 .5.2.9.6 1.3.4.4 1.1.8 2.1 1.2 1.7.6 3 1.4 3.8 2.3.8.9 1.2 2.1 1.2 3.5 0 1.5-.5 2.8-1.5 3.6s-2.3 1.3-4 1.3c-1.1 0-2.2-.2-3.1-.7-.9-.5-1.7-1.1-2.2-2-.5-.9-.8-1.9-.8-3.1h3.6c0 1 .2 1.8.6 2.2.4.5 1 .7 2 .7s1.6-.6 1.6-2zm9.1-8.5l.1 1.2c.8-1 1.8-1.5 3.1-1.5s2.3.6 2.8 1.8c.8-1.2 1.8-1.8 3.2-1.8 2.3 0 3.5 1.6 3.6 4.8V29h-3.5v-8.4c0-.8-.1-1.3-.3-1.6-.2-.3-.6-.5-1.1-.5-.6 0-1.1.4-1.4 1.2v9.4H89v-8.4c0-.8-.1-1.3-.3-1.6-.2-.3-.6-.5-1.1-.5-.6 0-1.1.3-1.4 1V29h-3.5V15.8H86zM107.6 29c-.1-.2-.2-.5-.3-1-.6.8-1.5 1.3-2.5 1.3-1.1 0-2-.4-2.8-1.1-.7-.7-1.1-1.7-1.1-2.8 0-1.4.4-2.5 1.3-3.2.9-.8 2.2-1.1 3.8-1.2h1.1v-1.1c0-.6-.1-1-.3-1.3-.2-.2-.5-.4-.9-.4-.9 0-1.3.5-1.3 1.5h-3.5c0-1.2.5-2.2 1.4-3 .9-.8 2.1-1.2 3.5-1.2s2.6.4 3.4 1.1c.8.7 1.2 1.8 1.2 3.2V26c0 1.1.2 2 .5 2.7v.3h-3.5zm-2.1-2.5c.4 0 .7-.1 1-.2.3-.2.5-.3.6-.5V23h-.8c-.6 0-1 .2-1.4.6-.3.4-.5.9-.5 1.5 0 .9.4 1.4 1.1 1.4zm14.1-7.4l-1.1-.1c-.9 0-1.6.4-1.9 1.2V29h-3.5V15.8h3.3l.1 1.4c.5-1.1 1.3-1.7 2.3-1.7.4 0 .7.1 1 .2l-.2 3.4zm6.4-6.6v3.2h1.8v2.6H126v6.6c0 .5.1.9.2 1.1.1.2.4.3.8.3.3 0 .6 0 .8-.1v2.7c-.6.2-1.2.3-1.9.3-2.2 0-3.4-1.3-3.4-3.8v-7H121v-2.6h1.5v-3.2h3.5zm9.6 16.5V11.2h4.7c2.1 0 3.7.7 5 2 1.2 1.3 1.9 3.1 1.9 5.4v2.9c0 2.3-.6 4.2-1.9 5.5-1.2 1.3-2.9 2-5.1 2h-4.6zm3.6-14.8V26h1.1c1.2 0 2-.3 2.5-.9.5-.6.7-1.7.8-3.3v-3.1c0-1.7-.2-2.8-.7-3.5-.5-.7-1.3-1-2.4-1h-1.3zm15.7 15c-1.8 0-3.2-.5-4.1-1.6-1-1.1-1.5-2.6-1.5-4.5v-1c0-2.1.5-3.7 1.4-4.8.9-1.1 2.2-1.7 3.9-1.7 1.7 0 2.9.5 3.7 1.6.8 1.1 1.3 2.6 1.3 4.7v1.7h-6.9c0 1 .3 1.7.6 2.1.4.4 1 .7 1.8.7 1.2 0 2.1-.4 2.9-1.2l1.4 2.1c-.4.6-1 1.1-1.8 1.4-.9.4-1.7.5-2.7.5zm-2.2-8.1h3.5v-.3c0-.8-.1-1.4-.4-1.8-.2-.4-.7-.6-1.3-.6-.6 0-1 .2-1.3.6-.3.5-.4 1.2-.5 2.1zm13 3l1.7-8.3h3.6L167.4 29h-3.3l-3.6-13.2h3.6l1.6 8.3zm10.5 4.9h-3.5V15.8h3.5V29zm-3.6-16.6c0-.5.2-1 .5-1.3.3-.3.8-.5 1.4-.5.6 0 1 .2 1.4.5.3.3.5.8.5 1.3s-.2 1-.5 1.3c-.3.3-.8.5-1.4.5-.6 0-1-.2-1.4-.5-.3-.4-.5-.8-.5-1.3zm11.1 14c1 0 1.5-.7 1.5-2h3.2c0 1.4-.5 2.6-1.3 3.5-.9.9-2 1.3-3.4 1.3-1.7 0-3-.5-3.9-1.6-.9-1.1-1.4-2.6-1.4-4.7v-1c0-2.1.4-3.7 1.3-4.7.9-1.1 2.2-1.6 3.9-1.6 1.5 0 2.6.5 3.4 1.4.8.9 1.3 2.2 1.3 3.8h-3.2c0-.7-.1-1.3-.4-1.7-.2-.4-.6-.6-1.2-.6s-1 .2-1.3.6c-.3.4-.4 1.2-.4 2.5v1.3c0 1.1.1 1.8.2 2.3.1.4.3.7.5.9.4.2.7.3 1.2.3zm12 2.8c-1.8 0-3.2-.5-4.1-1.6-1-1.1-1.5-2.6-1.5-4.5v-1c0-2.1.5-3.7 1.4-4.8.9-1.1 2.2-1.7 3.9-1.7 1.7 0 2.9.5 3.7 1.6.8 1.1 1.3 2.6 1.3 4.7v1.7h-6.9c0 1 .3 1.7.6 2.1.4.4 1 .7 1.8.7 1.2 0 2.1-.4 2.9-1.2l1.4 2.1c-.4.6-1 1.1-1.8 1.4-.8.4-1.7.5-2.7.5zm-2.1-8.1h3.5v-.3c0-.8-.1-1.4-.4-1.8-.2-.4-.7-.6-1.3-.6-.6 0-1 .2-1.3.6-.3.5-.5 1.2-.5 2.1z"/><path fill="#788891" d="M70.9 45l1.3-4.3h1.5L71.2 48c-.4 1.1-1 1.6-2 1.6-.2 0-.4 0-.7-.1v-1.1h.3c.4 0 .6-.1.8-.2.2-.1.3-.3.4-.7l.2-.5-2.2-6.3h1.5l1.4 4.3zm7.4.2l1.9-4.6H82V47h-1.4v-4.2L78.8 47h-1L76 42.8V47h-1.4v-6.3h1.8l1.9 4.5zM89 47h-1.4v-2.6h-2.5V47h-1.4v-6.3h1.4v2.6h2.5v-2.6H89V47zm3-4.3h1.4c.5 0 1 .1 1.4.3.4.2.7.4.9.8.2.3.3.7.3 1.1 0 .7-.2 1.2-.7 1.6-.5.4-1.1.6-1.8.6h-2.8v-6.3H92v1.9zm6.4 4.3H97v-6.3h1.4V47zM92 43.8v2h1.4c.3 0 .6-.1.8-.3.2-.2.3-.4.3-.7 0-.3-.1-.6-.3-.8-.2-.2-.5-.3-.8-.3H92zm10.9 3.3c-.9 0-1.6-.3-2.2-.8-.6-.6-.8-1.3-.8-2.3v-.2c0-.6.1-1.2.4-1.7.2-.5.6-.9 1-1.2.4-.3.9-.4 1.5-.4.9 0 1.5.3 2 .8.5.6.7 1.3.7 2.3v.6h-4.1c0 .5.2.9.5 1.2.3.3.7.5 1.2.5.7 0 1.2-.3 1.6-.8l.8.7c-.3.4-.6.7-1 .9-.6.3-1 .4-1.6.4zm-.1-5.4c-.4 0-.7.1-.9.4-.2.3-.4.7-.5 1.1h2.7v-.1c0-.5-.2-.8-.4-1.1-.2-.2-.5-.3-.9-.3zm11.8.1h-2.1V47h-1.4v-5.2h-2v-1.1h5.5v1.1zm3.3 5.3c-.9 0-1.6-.3-2.2-.8-.6-.6-.8-1.3-.8-2.3v-.2c0-.6.1-1.2.4-1.7.2-.5.6-.9 1-1.2.4-.3.9-.4 1.5-.4.9 0 1.5.3 2 .8.5.6.7 1.3.7 2.3v.6h-4.1c0 .5.2.9.5 1.2.3.3.7.5 1.2.5.7 0 1.2-.3 1.6-.8l.8.7c-.3.4-.6.7-1 .9-.6.3-1 .4-1.6.4zm-.1-5.4c-.4 0-.7.1-.9.4-.2.3-.4.7-.5 1.1h2.7v-.1c0-.5-.2-.8-.4-1.1-.2-.2-.5-.3-.9-.3zm6.1 1l1.2-2.1h1.6l-1.9 3.1 2 3.2h-1.6l-1.3-2.2-1.3 2.2H121l2-3.2-1.9-3.1h1.6l1.2 2.1zM133 47h-1.4v-2.6h-2.5V47h-1.4v-6.3h1.4v2.6h2.5v-2.6h1.4V47zm1.3-3.2c0-.6.1-1.2.4-1.7.2-.5.6-.9 1-1.1.4-.3 1-.4 1.5-.4.9 0 1.5.3 2.1.8.5.6.8 1.3.9 2.2v.3c0 .6-.1 1.2-.4 1.7-.2.5-.6.9-1 1.1-.4.3-1 .4-1.5.4-.9 0-1.6-.3-2.2-.9-.6-.6-.8-1.4-.8-2.4zm1.4.1c0 .7.1 1.2.4 1.5.3.4.6.6 1.1.6.5 0 .9-.2 1.1-.6.3-.4.4-.9.4-1.6 0-.6-.1-1.1-.4-1.5-.3-.4-.6-.6-1.1-.6-.5 0-.8.2-1.1.6-.3.3-.4.9-.4 1.6zm10.9-3.2V47h-1.4v-5.2h-1.8l-.1 2.2c-.1 1.1-.3 1.8-.6 2.3-.3.5-.8.7-1.5.7h-.4v-1.2h.3c.3 0 .5-.2.7-.6.1-.3.2-1 .3-1.9l.1-2.7h4.4zm1.3 3.1c0-.6.1-1.2.4-1.7.2-.5.6-.9 1-1.1.4-.3 1-.4 1.5-.4.9 0 1.5.3 2.1.8.5.6.8 1.3.9 2.2v.3c0 .6-.1 1.2-.4 1.7-.2.5-.6.9-1 1.1-.4.3-1 .4-1.5.4-.9 0-1.6-.3-2.2-.9-.5-.6-.8-1.4-.8-2.4zm1.4.1c0 .7.1 1.2.4 1.5.3.4.6.6 1.1.6.5 0 .9-.2 1.1-.6.3-.4.4-.9.4-1.6 0-.6-.1-1.1-.4-1.5-.3-.4-.6-.6-1.1-.6-.5 0-.8.2-1.1.6-.2.3-.4.9-.4 1.6zm9.9-2.1h-2.8V47H155v-6.3h4.2v1.1zm4.8-1.1h1.4V47H164v-4.2l-2.5 4.2h-1.4v-6.3h1.4v4.2l2.5-4.2zm6.9 0h1.4V47h-1.4v-4.2l-2.5 4.2H167v-6.3h1.4v4.2l2.5-4.2z"/><path fill="#00B2FF" d="M32.1 13.9c1.1 0 2.1.7 2.4 1.7h9c.4-1 1.3-1.7 2.4-1.7 1.4 0 2.6 1.2 2.6 2.6 0 1.4-1.2 2.6-2.6 2.6-1.1 0-2.1-.7-2.4-1.7h-9c-.4 1-1.3 1.7-2.4 1.7-1.4 0-2.6-1.2-2.6-2.6 0-1.5 1.1-2.6 2.6-2.6zm13.8 3.4c.5 0 .9-.4.9-.9s-.4-.9-.9-.9-.9.4-.9.9c.1.5.5.9.9.9zm-13.8 0c.5 0 .9-.4.9-.9s-.4-.9-.9-.9-.9.4-.9.9.4.9.9.9z"/><g fill="#00B2FF"><path d="M29.8 11.3h2.4c.4 1 1.3 1.7 2.4 1.7 1.4 0 2.6-1.2 2.6-2.6 0-1.4-1.2-2.6-2.6-2.6-1.1 0-2.1.7-2.4 1.7h-2.8c-.2 0-.5.1-.6.3l-3.5 3.5c-.2.2-.3.4-.3.6v5.4c-1 .4-1.7 1.3-1.7 2.4 0 1.4 1.2 2.6 2.6 2.6 1.4 0 2.6-1.2 2.6-2.6 0-1.1-.7-2.1-1.7-2.4v-5l3-3zm4.9-1.8c.5 0 .9.4.9.9s-.4.9-.9.9-.9-.4-.9-.9.4-.9.9-.9zm-8.7 13c-.5 0-.9-.4-.9-.9s.4-.9.9-.9.9.4.9.9-.4.9-.9.9zM12.4 12.4c-.2.2-.3.4-.3.6v8.3l-1.5 1.5c-.3-.2-.7-.3-1.1-.3-1.4 0-2.6 1.2-2.6 2.6 0 1.4 1.2 2.6 2.6 2.6s2.6-1.2 2.6-2.6c0-.4-.1-.8-.3-1.1l1.7-1.7c.2-.2.3-.4.3-.6v-8.3L22.2 5c.3.2.7.3 1.1.3C24.8 5.2 26 4 26 2.6 26 1.2 24.8 0 23.4 0c-1.4 0-2.6 1.2-2.6 2.6 0 .4.1.8.3 1.1l-8.7 8.7zM9.5 26c-.5 0-.9-.4-.9-.9s.4-.9.9-.9.9.4.9.9-.4.9-.9.9zM23.4 1.7c.5 0 .9.4.9.9s-.4.9-.9.9-.9-.4-.9-.9.4-.9.9-.9zM2.6 17.3c1.4 0 2.6-1.2 2.6-2.6 0-1.1-.7-2.1-1.7-2.4V9L9 3.5h4.1c.4 1 1.3 1.7 2.4 1.7 1.4 0 2.6-1.2 2.6-2.6C18.2 1.2 17 0 15.6 0c-1.1 0-2.1.7-2.4 1.7H8.7c-.3 0-.5.1-.6.3L2 8.1c-.2.1-.3.3-.3.6v3.6c-1 .4-1.7 1.3-1.7 2.4 0 1.5 1.2 2.6 2.6 2.6zm13-15.6c.5 0 .9.4.9.9s-.4.9-.9.9-.9-.4-.9-.9.4-.9.9-.9zm-13 12.2c.5 0 .9.4.9.9s-.4.9-.9.9-.9-.4-.9-.9.4-.9.9-.9zM41.6 24.3c-1.4 0-2.6 1.2-2.6 2.6 0 .4.1.8.3 1.1L36 31.2h-5c-.4-1-1.3-1.7-2.4-1.7-1.1 0-2.1.7-2.4 1.7h-9c-.4-1-1.3-1.7-2.4-1.7-1.4 0-2.6 1.2-2.6 2.6 0 1.1.7 2.1 1.7 2.4V47c-1 .4-1.7 1.3-1.7 2.4 0 1.4 1.2 2.6 2.6 2.6 1.4 0 2.6-1.2 2.6-2.6 0-1.1-.7-2.1-1.7-2.4V34.5c.7-.3 1.3-.8 1.6-1.6h9c.4 1 1.3 1.7 2.4 1.7 1.1 0 2.1-.7 2.4-1.7h5.4c.2 0 .5-.1.6-.3l3.5-3.5c.3.2.7.3 1.1.3 1.4 0 2.6-1.2 2.6-2.6-.1-1.4-1.3-2.5-2.7-2.5zm-26 25.1c0 .5-.4.9-.9.9s-.9-.4-.9-.9.4-.9.9-.9.9.4.9.9zm-.9-16.5c-.5 0-.9-.4-.9-.9s.4-.9.9-.9.9.4.9.9-.4.9-.9.9zm13.9 0c-.5 0-.9-.4-.9-.9s.4-.9.9-.9.9.4.9.9-.4.9-.9.9zm13-5.2c-.5 0-.9-.4-.9-.9s.4-.9.9-.9.9.4.9.9-.4.9-.9.9z"/><path d="M18.5 14.1c-.2.2-.3.4-.3.6v2.8c-1 .4-1.7 1.3-1.7 2.4 0 1.4 1.2 2.6 2.6 2.6 1.4 0 2.6-1.2 2.6-2.6 0-1.1-.7-2.1-1.7-2.4v-2.4L30.1 4.9c.3.2.7.3 1.1.3 1.1 0 2.1-.7 2.4-1.7h2.8v1.7c0 .2.1.5.3.6l3.5 3.5c-.2.3-.3.7-.3 1.1 0 1.4 1.2 2.6 2.6 2.6 1.4 0 2.6-1.2 2.6-2.6 0-1.4-1.2-2.6-2.6-2.6-.4 0-.8.1-1.1.3l-3.2-3.2V2.6c0-.5-.4-.9-.9-.9h-3.6C33.3.7 32.4 0 31.3 0c-1.4 0-2.6 1.2-2.6 2.6 0 .4.1.8.3 1.1L18.5 14.1zm.6 6.7c-.5 0-.9-.4-.9-.9s.4-.9.9-.9.9.4.9.9-.5.9-.9.9zM42.5 9.5c.5 0 .9.4.9.9s-.4.9-.9.9-.9-.4-.9-.9.4-.9.9-.9zM31.2 1.7c.5 0 .9.4.9.9s-.4.9-.9.9-.9-.4-.9-.9.4-.9.9-.9z"/><path d="M51.7 10.7l-6.9-6.9c.2-.4.3-.8.3-1.2 0-1.4-1.2-2.6-2.6-2.6-1.4 0-2.6 1.2-2.6 2.6 0 1.4 1.2 2.6 2.6 2.6.4 0 .8-.1 1.1-.3l6.7 6.7v7.1l-2.1 2.1H39c-.2 0-.5.1-.6.3l-5 4.9H23.2c-.4-1-1.3-1.7-2.4-1.7-1.4 0-2.6 1.2-2.6 2.6 0 1.4 1.2 2.6 2.6 2.6 1.1 0 2.1-.7 2.4-1.7h10.6c.2 0 .5-.1.6-.3l4.9-4.9h9.2c.2 0 .5-.1.6-.3l2.6-2.6c.2-.2.3-.4.3-.6v-7.8c0-.3-.1-.5-.3-.6zm-9.2-7.2c-.5 0-.9-.4-.9-.9s.4-.9.9-.9.9.4.9.9-.5.9-.9.9zM20.8 27.7c-.5 0-.9-.4-.9-.9s.4-.9.9-.9.9.4.9.9-.4.9-.9.9zM10.4 41.8v-2.1c1-.4 1.7-1.3 1.7-2.4 0-1.1-.7-2.1-1.7-2.4v-1c0-.2-.1-.5-.3-.6l-6.7-6.7v-.7c1-.4 1.7-1.3 1.7-2.4 0-.4-.1-.8-.3-1.1l3.5-3.5c.2-.2.3-.4.3-.6v-5.4c1-.4 1.7-1.3 1.7-2.4 0-1.4-1.2-2.6-2.6-2.6S5.2 9 5.2 10.4c0 1.1.7 2.1 1.7 2.4v5L3.7 21c-.3-.2-.7-.3-1.1-.3C1.2 20.8 0 22 0 23.4c0 1.1.7 2.1 1.7 2.4v1c0 .2.1.5.3.6l6.7 6.7v.7c-1 .4-1.7 1.3-1.7 2.4 0 1.1.7 2.1 1.7 2.4v2.1C7.7 42.1 7 43 7 44.1c0 1.4 1.2 2.6 2.6 2.6s2.6-1.2 2.6-2.6c-.1-1-.8-2-1.8-2.3zM7.8 9.5c.5 0 .9.4.9.9s-.4.9-.9.9-.9-.4-.9-.9.4-.9.9-.9zM2.6 24.3c-.5 0-.9-.4-.9-.9s.4-.9.9-.9.9.4.9.9-.4.9-.9.9zm6.9 12.1c.5 0 .9.4.9.9s-.4.9-.9.9-.9-.4-.9-.9.5-.9.9-.9zm0 8.7c-.5 0-.9-.4-.9-.9s.4-.9.9-.9.9.4.9.9-.4.9-.9.9z"/></g></svg>