<svg xmlns="http://www.w3.org/2000/svg" viewBox="0 0 38 38"><g fill="#00B2FF"><path d="M23.4 13.9c.8 0 1.5-.5 1.8-1.3h6.6c.3.7 1 1.3 1.8 1.3 1 0 1.9-.9 1.9-1.9 0-1-.9-1.9-1.9-1.9-.8 0-1.5.5-1.8 1.3h-6.6c-.3-.7-1-1.3-1.8-1.3-1 0-1.9.9-1.9 1.9 0 1.1.9 1.9 1.9 1.9zm10.2-2.5c.3 0 .6.3.6.6s-.3.6-.6.6-.6-.3-.6-.6c-.1-.3.2-.6.6-.6zm-10.2 0c.3 0 .6.3.6.6s-.3.6-.6.6-.6-.3-.6-.6.3-.6.6-.6z"/><path d="M21.8 8.2h1.8c.3.7 1 1.3 1.8 1.3 1 0 1.9-.9 1.9-1.9 0-1-.9-1.9-1.9-1.9-.8 0-1.5.5-1.8 1.3h-2c-.2 0-.3.1-.4.2l-2.5 2.5c-.1.1-.2.3-.2.4V14c-.7.3-1.3 1-1.3 1.8 0 1 .9 1.9 1.9 1.9 1 0 1.9-.9 1.9-1.9 0-.8-.5-1.5-1.3-1.8v-3.7l2.1-2.1zM25.3 7c.4 0 .7.3.7.6s-.3.6-.6.6-.6-.3-.6-.6.2-.6.5-.6zM19 16.5c-.3 0-.6-.3-.6-.6s.3-.6.6-.6.6.3.6.6-.3.6-.6.6zM9.1 9.1c-.2.1-.2.2-.2.4v6.1l-1.1 1.1c-.2-.1-.5-.2-.8-.2-1 0-1.9.9-1.9 1.9 0 1 .9 1.9 1.9 1.9s1.9-.9 1.9-1.9c0-.3-.1-.6-.2-.8l1.3-1.3c.1-.1.2-.3.2-.4V9.8l6.2-6.2c.2.1.5.2.8.2 1 0 1.9-.9 1.9-1.9 0-1-.9-1.9-1.9-1.9-1 0-1.9.9-1.9 1.9 0 .3.1.6.2.8L9.1 9.1zM7 19c-.3 0-.6-.3-.6-.6s.3-.6.6-.6.6.3.6.6-.3.6-.6.6zM17.1 1.3c.3 0 .6.3.6.6s-.3.6-.6.6-.6-.3-.6-.6.3-.6.6-.6zM1.9 12.7c1 0 1.9-.9 1.9-1.9 0-.8-.5-1.5-1.3-1.8V6.6l4.1-4.1h3c.3.7 1 1.3 1.8 1.3 1 0 1.9-.9 1.9-1.9 0-1-.9-1.9-1.9-1.9-.8 0-1.5.5-1.8 1.3H6.3c-.1 0-.3 0-.4.2L1.5 5.9c-.2.1-.2.3-.2.4V9c-.8.2-1.3.9-1.3 1.8 0 1 .9 1.9 1.9 1.9zm9.5-11.4c.3 0 .6.3.6.6s-.3.6-.6.6-.6-.3-.6-.6.3-.6.6-.6zm-9.5 8.8c.3 0 .6.3.6.6s-.3.6-.6.6-.6-.3-.6-.6.3-.6.6-.6zM30.4 17.7c-1 0-1.9.9-1.9 1.9 0 .3.1.6.2.8l-2.4 2.4h-3.7c-.3-.7-1-1.3-1.8-1.3s-1.5.5-1.8 1.3h-6.6c-.3-.7-1-1.3-1.8-1.3-1 0-1.9.9-1.9 1.9 0 .8.5 1.5 1.3 1.8v9.1c-.7.3-1.3 1-1.3 1.8 0 1 .9 1.9 1.9 1.9 1 0 1.9-.9 1.9-1.9 0-.8-.5-1.5-1.3-1.8v-9.1c.5-.2 1-.6 1.2-1.2H19c.3.7 1 1.3 1.8 1.3s1.5-.5 1.8-1.3h3.9c.2 0 .3-.1.4-.2l2.5-2.5c.2.1.5.2.8.2 1 0 1.9-.9 1.9-1.9s-.7-1.9-1.7-1.9zm-19 18.4c0 .3-.3.6-.6.6s-.6-.3-.6-.6.3-.6.6-.6.6.2.6.6zm-.6-12c-.3 0-.6-.3-.6-.6s.3-.6.6-.6.6.3.6.6-.3.6-.6.6zm10.1 0c-.3 0-.6-.3-.6-.6s.3-.6.6-.6.6.3.6.6-.3.6-.6.6zm9.5-3.8c-.3 0-.6-.3-.6-.6s.3-.6.6-.6.6.3.6.6-.3.6-.6.6z"/><path d="M13.5 10.3c-.1.1-.2.3-.2.4v2c-.7.3-1.3 1-1.3 1.8 0 1 .9 1.9 1.9 1.9s1.9-.9 1.9-1.9c0-.8-.5-1.5-1.3-1.8V11L22 3.6c.2.1.5.2.8.2.8 0 1.5-.5 1.8-1.3h2v1.3c0 .2.1.3.2.4l2.5 2.5c-.1.2-.2.5-.2.8 0 1 .9 1.9 1.9 1.9 1 0 1.9-.9 1.9-1.9 0-1-.9-1.9-1.9-1.9-.3 0-.6.1-.8.2l-2.4-2.4V1.9c0-.4-.3-.6-.6-.6h-2.6c-.3-.7-1-1.3-1.8-1.3-1 0-1.9.9-1.9 1.9 0 .3.1.6.2.8l-7.6 7.6zm.4 4.9c-.3 0-.6-.3-.6-.6s.3-.6.6-.6.6.3.6.6-.2.6-.6.6zM31 7c.3 0 .6.3.6.6s-.3.6-.6.6-.6-.3-.6-.6.3-.6.6-.6zm-8.2-5.7c.3 0 .6.3.6.6s-.3.6-.6.6-.6-.3-.6-.6.3-.6.6-.6z"/><path d="M37.8 7.8l-5.1-5.1c.1-.2.2-.5.2-.8C32.9.9 32 0 31 0s-1.9.9-1.9 1.9c0 1 .9 1.9 1.9 1.9.3 0 .6-.1.8-.2l4.9 4.9v5.2l-1.5 1.5h-6.7c-.2 0-.3.1-.4.2L24.4 19H17c-.3-.7-1-1.3-1.8-1.3-1 0-1.9.9-1.9 1.9s.9 1.9 1.9 1.9c.8 0 1.5-.5 1.8-1.3h7.7c.2 0 .3-.1.4-.2l3.6-3.6h6.7c.2 0 .3-.1.4-.2l1.9-1.9c.1-.1.2-.3.2-.4V8.2c.1-.1 0-.3-.1-.4zM31 2.5c-.3 0-.6-.3-.6-.6s.3-.6.6-.6.6.3.6.6-.2.6-.6.6zM15.2 20.3c-.3 0-.6-.3-.6-.6s.3-.6.6-.6.6.3.6.6-.3.6-.6.6zM7.6 30.5V29c.7-.3 1.3-1 1.3-1.8s-.5-1.5-1.3-1.8v-.7c0-.2-.1-.3-.2-.4l-4.9-4.9v-.5c.7-.3 1.3-1 1.3-1.8 0-.3-.1-.6-.2-.8l2.5-2.5c.1-.1.2-.3.2-.4v-4c.7-.3 1.3-1 1.3-1.8 0-1-.9-1.9-1.9-1.9-1 0-1.9.9-1.9 1.9 0 .8.5 1.5 1.3 1.8V13l-2.4 2.4c-.2-.1-.5-.2-.8-.2-1 0-1.9.9-1.9 1.9 0 .8.5 1.5 1.3 1.8v.7c0 .2.1.3.2.4l4.8 5v.5c-.7.3-1.3 1-1.3 1.8s.5 1.5 1.3 1.8v1.5c-.7.3-1.3 1-1.3 1.8 0 1 .9 1.9 1.9 1.9 1 0 1.9-.9 1.9-1.9.1-.9-.5-1.6-1.2-1.9zM5.7 7c.3 0 .6.3.6.6s-.3.6-.6.6-.6-.3-.6-.6.3-.6.6-.6zM1.9 17.7c-.3 0-.6-.3-.6-.6s.3-.6.6-.6.6.3.6.6-.3.6-.6.6zM7 26.6c.3 0 .6.3.6.6s-.3.7-.6.7-.6-.3-.6-.6.2-.7.6-.7zm0 6.3c-.3 0-.6-.3-.6-.6s.3-.6.6-.6.6.3.6.6-.3.6-.6.6z"/></g></svg>