<svg xmlns="http://www.w3.org/2000/svg" xmlns:xlink="http://www.w3.org/1999/xlink">
<symbol id="icon-detective" viewBox="0 0 31 27"><path d="M15.6 8.2c-.3 0-.6.3-.6.6s.3.6.6.6.6-.3.6-.6-.3-.6-.6-.6z"/><path d="M29 11.8h-2.3c-1.2-3.5-3-9.6-6.1-11.3-1.6-.9-3.1-.3-3.7 1-.2.5-.7.8-1.2.8s-1-.3-1.2-.8C14 .3 12.5-.3 11 .4 7.8 2 6 8.4 4.7 11.9H2.3c-1 0-1.8.8-1.8 1.8s.8 1.8 1.8 1.8H29c1 0 1.8-.8 1.8-1.8-.1-1.1-.9-1.9-1.8-1.9zM6.7 9.4h6.6c.3 0 .6-.3.6-.6s-.3-.6-.6-.6H7.1c1.8-5 3.4-6.4 4.3-6.8.9-.5 1.7-.1 2 .5.4.9 1.3 1.5 2.3 1.5 1 0 1.9-.5 2.3-1.5.3-.6 1-1 2-.4.9.5 2.5 2 4.2 6.7H18c-.3 0-.6.3-.6.6s.3.6.6.6h6.6l.8 2.4H5.8c.2-.6.6-1.5.9-2.4zM29 14.2H2.3c-.3 0-.6-.3-.6-.6s.3-.6.6-.6H29c.3 0 .6.3.6.6-.1.3-.3.6-.6.6zM26.2 17.8h-9.4c-.3 0-.6.3-.6.6v.6H15v-.6c0-.3-.3-.6-.6-.6H5c-.3 0-.6.3-.6.6v2.4c0 3 2.4 5.4 5.3 5.4 2.2 0 4.2-1.4 5-3.5.6-.3 1.3-.3 1.9 0 .8 2.1 2.7 3.5 5 3.5 2.9 0 5.3-2.4 5.3-5.4v-2.4c-.1-.4-.3-.6-.7-.6zm-12.3 2.9c0 2.3-1.8 4.2-4.1 4.2S5.7 23 5.7 20.7v-1.8H14v1.8zm1.1.6v-1.2h1.2v1.2c-.4-.1-.8-.1-1.2 0zm10.7-.6c0 2.3-1.9 4.2-4.1 4.2-2.3 0-4.1-1.9-4.1-4.2v-1.8h8.3v1.8z"/><path d="M9.7 23.7c.3 0 .6-.3.6-.6s-.3-.6-.6-.6c-1 0-1.8-.8-1.8-1.8 0-.3-.3-.6-.6-.6s-.6.3-.6.6c.1 1.7 1.4 3 3 3zM21.5 23.7c1.6 0 2.9-1.3 2.9-3 0-.3-.3-.6-.6-.6s-.6.3-.6.6c0 1-.8 1.8-1.8 1.8-.3 0-.6.3-.6.6.1.3.4.6.7.6z"/>
</symbol>
<symbol id="icon-hired" viewBox="0 0 32 33">
<path d="M28.4 26.2c.3-.5.5-1.1.5-1.7v-3.8c0-.3-.3-.6-.6-.6h-2.8c-1.3 0-2.3 1.1-2.3 2.4v2.1c0 .6.2 1.2.5 1.7-.4.1-.8.2-1.2.4-.9-1.3-2.3-2.2-3.9-2.4.6-.7.9-1.5.9-2.5v-5.1c0-.3-.3-.6-.6-.6h-3.8c-1.6 0-2.9 1.3-2.9 3v2.8c0 .9.4 1.8.9 2.5-1.6.2-3 1.1-3.9 2.4-.4-.2-.8-.3-1.2-.4.3-.5.5-1.1.5-1.7v-3.8c0-.3-.3-.6-.6-.6H5.3C4 20.1 3 21.1 3 22.4v2.1c0 .6.2 1.2.5 1.7-1.9.3-3.4 2-3.4 4v1.9c0 .3.3.6.6.6h30.4c.3 0 .6-.3.6-.6v-1.9c0-2-1.4-3.7-3.3-4zM4.2 22.4c0-.6.5-1.1 1.1-1.1h2.1v.8c0 .4-.3.7-.7.7H4.2v-.4zm0 1.7h2.6c.2 0 .5 0 .7-.1v.6c0 .9-.7 1.6-1.6 1.6s-1.6-.7-1.6-1.6v-.5zm2 3.3l-.4.4-.4-.4h.8zm2.2 2.2v1.9h-7v-1.2c0-1.4 1-2.6 2.3-2.8l1.7 1.7c.1.1.3.2.4.2.2 0 .3-.1.4-.2l1.7-1.7c.3 0 .6.1.8.3-.2.5-.3 1.1-.3 1.8zm7.5-5.4c-1.3 0-2.4-1.1-2.4-2.5v-.8h3.7c.4 0 .8-.1 1.1-.3v1.1c0 1.4-1 2.5-2.4 2.5zm1.1 1.3l-1.1 1.1-1.1-1.1H17zM13.5 19c0-.9.8-1.7 1.7-1.7h3.1v1.3c0 .6-.5 1.2-1.1 1.2h-3.7V19zm8.7 12.5H9.7v-1.3h4c.3 0 .6-.3.6-.6s-.3-.6-.6-.6h-4c.3-1.8 1.7-3.2 3.4-3.4l2.3 2.4c.1.1.3.2.4.2.2 0 .3-.1.4-.2l2.3-2.4c2 .3 3.5 2 3.5 4v1.9zm2.2-9.1c0-.6.5-1.1 1.1-1.1h2.1v.8c0 .4-.3.7-.7.7h-2.6v-.4zm0 1.7H27c.2 0 .5 0 .7-.1v.6c0 .9-.7 1.6-1.6 1.6-.9 0-1.6-.7-1.6-1.6v-.5zm2.1 3.3l-.4.4-.4-.4h.8zm4 4.1h-7.1v-1.9c0-.6-.1-1.3-.3-1.8.3-.1.5-.2.8-.3l1.7 1.7c.1.1.3.2.4.2.2 0 .3-.1.4-.2l1.7-1.7c1.3.2 2.3 1.4 2.3 2.8v1.2zM12.9 6.4c-.2.2-.2.6 0 .9l1.7 1.8c.1.1.3.2.4.2.2 0 .3-.1.4-.2L19 5.5c.2-.2.2-.6 0-.9-.2-.2-.6-.2-.9 0l-3 3.1-1.3-1.3c-.3-.2-.7-.2-.9 0z"/><path d="M15.9 13.2c3.4 0 6.2-2.8 6.2-6.3 0-2.5-1.4-4.8-3.7-5.8-.3-.1-.7 0-.8.3-.1.3 0 .7.3.8 1.8.8 2.9 2.6 2.9 4.6 0 2.8-2.2 5.1-5 5.1s-5-2.3-5-5.1c0-2 1.1-3.8 2.9-4.6.3-.1.4-.5.3-.8-.1-.3-.5-.5-.8-.3-2.2 1-3.7 3.3-3.7 5.8.2 3.4 3 6.3 6.4 6.3z"/><path d="M15.9 1.8c.1 0 .1 0 0 0 .4 0 .6-.3.6-.6s-.3-.6-.6-.6-.6.3-.6.6.3.6.6.6zM15.9 29c-.2 0-.3.1-.4.2-.1.1-.2.3-.2.4 0 .2.1.3.2.4.1.1.3.2.4.2s.3-.1.4-.2c.1-.1.2-.3.2-.4 0-.2-.1-.3-.2-.4 0-.2-.2-.2-.4-.2z"/>
</symbol>
<symbol id="icon-stopwatch" viewBox="0 0 30 37">
<path d="M26.6 12.4l1.5-1.5c.8-.8.8-2.1 0-2.9-.8-.8-2.1-.8-3 0l-1.6 1.6c-1.7-1.2-3.6-2-5.6-2.3V5.1h1.4c.4 0 .7-.3.7-.7V2.6c0-1.1-.9-2.1-2.1-2.1h-5.6c-1.2 0-2.1.9-2.1 2.1v1.8c0 .4.3.7.7.7h1.4v2.1c-2 .4-3.9 1.2-5.6 2.3L5.2 7.9c-.8-.8-2.1-.8-3 0-.8.8-.8 2.1 0 2.9l1.5 1.5C1.6 14.9.5 18.1.5 21.4c0 8 6.6 14.5 14.6 14.5 8.1 0 14.6-6.5 14.6-14.5.1-3.3-1-6.5-3.1-9zm-.5-3.5c.3-.3.7-.3 1 0 .3.3.3.7 0 1l-1.4 1.4c-.3-.3-.7-.6-1-.9l1.4-1.5zM11.7 3.7V2.6c0-.4.3-.7.7-.7H18c.4 0 .7.3.7.7v1.1h-7zm4.9 1.4V7c-.9-.1-1.9-.1-2.8 0V5.1h2.8zM3.2 9.9c-.2-.3-.2-.7 0-1 .3-.3.7-.3 1 0l1.5 1.5c-.4.3-.7.6-1 .9L3.2 9.9zm12 24.7C7.9 34.6 2 28.7 2 21.4c0-3.2 1.2-6.3 3.3-8.7.6-.7 1.2-1.3 1.9-1.8 1.8-1.3 3.8-2.2 6-2.5.7-.1 1.3-.1 2-.1s1.3 0 2 .1c2.2.3 4.3 1.2 6 2.5.7.5 1.4 1.1 1.9 1.8 2.1 2.4 3.3 5.5 3.3 8.7 0 7.3-5.9 13.2-13.2 13.2z"/><path d="M15.2 23.5c1.2 0 2.1-.9 2.1-2.1 0-.9-.6-1.7-1.4-2v-5c0-.4-.3-.7-.7-.7-.4 0-.7.3-.7.7v5c-.8.3-1.4 1.1-1.4 2 0 1.2.9 2.1 2.1 2.1zm0-2.7c.4 0 .7.3.7.7 0 .4-.3.7-.7.7-.4 0-.7-.3-.7-.7 0-.4.3-.7.7-.7z"/><path d="M22.6 14.2c0-.1 0-.1 0 0-.1-.1-.1-.1 0 0-1.3-1.3-2.8-2.2-4.5-2.7-.4-.1-.8.1-.9.5-.1.4.1.8.5.9 1.2.4 2.4 1 3.3 1.8l-.5.5c-.3.3-.3.7 0 1 .1.1.3.2.5.2s.4-.1.5-.2l.5-.5c1.3 1.5 2 3.3 2.2 5.2h-.7c-.4 0-.7.3-.7.7 0 .4.3.7.7.7h.7c-.1 1.9-.9 3.7-2.2 5.2l-.5-.5c-.3-.3-.7-.3-1 0-.3.3-.3.7 0 1l.5.5c-1.5 1.3-3.3 2-5.2 2.1v-.7c0-.4-.3-.7-.7-.7-.4 0-.7.3-.7.7v.7c-1.9-.1-3.7-.9-5.2-2.1l.5-.5c.3-.3.3-.7 0-1-.3-.3-.7-.3-1 0l-.5.5c-1.3-1.5-2-3.3-2.2-5.2h.7c.4 0 .7-.3.7-.7 0-.4-.3-.7-.7-.7h-.6c.1-1.9.9-3.7 2.2-5.2l.5.5c.1.1.3.2.5.2s.4-.1.5-.2c.3-.3.3-.7 0-1l-.5-.5c1-.8 2.1-1.4 3.3-1.8.4-.1.6-.5.5-.9-.1-.4-.5-.6-.9-.5-1.6.5-3.2 1.4-4.4 2.6-2 2-3 4.6-3 7.3 0 2.8 1.1 5.3 3 7.3 2 1.9 4.6 3 7.4 3 2.8 0 5.4-1.1 7.4-3 2-2 3-4.6 3-7.3s-1.1-5.3-3-7.2z"/><path d="M15.2 12.5c.4 0 .7-.3.7-.7s-.3-.7-.7-.7c-.4 0-.7.3-.7.7s.3.7.7.7z"/>
</symbol>
<symbol id="icon-tag" viewBox="0 0 33 33">
<path d="M10.4 9.5c.2 0 .3-.1.4-.2.1-.1.2-.3.2-.4 0-.2-.1-.3-.2-.4-.1-.1-.3-.2-.4-.2-.2 0-.3.1-.4.2-.2.1-.3.2-.3.4s.1.3.2.4c.1.1.3.2.5.2z"/><path d="M31.8 2.4l.8-.8c.2-.2.2-.6 0-.9-.2-.2-.6-.2-.9 0l-.8.8-.8-.8c-.1-.1-.3-.2-.4-.2H19.1c-.8 0-1.6.3-2.2.9l-5.3 5.3c-.2.2-.2.6 0 .9.2.2.6.2.9 0l5.3-5.3c.4-.4.8-.6 1.3-.6h10.4l.6.6-2.3 2.3c-1-.6-2.3-.5-3.1.4-.5.5-.8 1.1-.8 1.8s.3 1.3.8 1.8 1.2.8 1.8.8 1.3-.3 1.8-.8c.8-.9 1-2.2.4-3.1L31 3.2l.6.6v10.4c0 .5-.2 1-.6 1.3L15.6 30.9c-.4.4-.8.6-1.3.6s-1-.2-1.3-.6L2.4 20.4c-.3-.4-.5-.9-.5-1.4 0-.5.2-1 .6-1.3l6.8-6.8c.2-.2.2-.6 0-.9-.3-.2-.7-.2-1 0l-6.8 6.8c-.6.6-.9 1.4-.9 2.2 0 .8.3 1.6.9 2.2L12 31.7c.6.6 1.4.9 2.2.9s1.6-.3 2.2-.9l15.3-15.3c.6-.6.9-1.4.9-2.2V3.6c0-.2-.1-.3-.2-.4l-.6-.8zm-4.5 5.5c-.2.2-.6.4-.9.4-.4 0-.7-.1-.9-.4-.5-.5-.5-1.4 0-1.9.3-.3.6-.4.9-.4.1 0 .3 0 .4.1l-.7.7c-.2.2-.2.6 0 .9.1.1.3.2.4.2.2 0 .3-.1.4-.2l.7-.7c.2.4.1.9-.3 1.3z"/><path d="M4.3 19.2c0 .7.3 1.3.7 1.8l7.3 7.3c.5.5 1.1.7 1.8.7s1.3-.3 1.8-.7l11.6-11.6c.5-.5.7-1.1.7-1.8s-.3-1.3-.7-1.8l-7.3-7.3c-1-1-2.5-1-3.5 0L5 17.5c-.4.4-.7 1.1-.7 1.7zm1.6-.8L17.5 6.8c.2-.2.6-.4.9-.4.3 0 .6.1.9.4l7.3 7.3c.2.2.4.5.4.9 0 .3-.1.6-.4.9L15 27.4c-.2.2-.5.4-.9.4-.3 0-.6-.1-.9-.4l-7.3-7.3c-.2-.2-.4-.5-.4-.9.1-.3.2-.6.4-.8z"/><path d="M14.1 19.8c.2 0 .3-.1.4-.2l.4-.4c.4.3.9.4 1.4.4.6 0 1.2-.2 1.6-.7.9-.9.9-2.5-.1-3.5-.3-.3-.4-.6-.4-.9 0-.3.1-.6.3-.8.4-.4 1.2-.4 1.7.1s.6 1.3.1 1.7c-.2.2-.2.6 0 .9.1.1.3.2.4.2.2 0 .3-.1.4-.2.8-.8.9-2 .3-3l.4-.4c.2-.2.2-.6 0-.9-.2-.2-.6-.2-.9 0l-.4.4c-1-.6-2.2-.5-3 .3-.5.5-.7 1.1-.7 1.7 0 .6.3 1.3.8 1.7.5.5.6 1.3.1 1.7-.4.4-1.2.4-1.7-.1s-.6-1.3-.1-1.7c.2-.2.2-.6 0-.9-.2-.2-.6-.2-.9 0-.8.8-.9 2-.3 3l-.4.4c-.2.2-.2.6 0 .9.3.3.5.3.6.3zM13.9 24.4c.1.1.3.2.4.2.2 0 .3-.1.4-.2.2-.2.2-.6 0-.9l-3.2-3.2c-.2-.2-.6-.2-.9 0-.2.2-.2.6 0 .9l3.3 3.2zM9.4 19.7c.2 0 .3-.1.4-.2.1-.1.2-.3.2-.5s-.1-.3-.2-.4c-.1-.1-.3-.2-.4-.2-.2 0-.3.1-.4.2-.1.1-.2.3-.2.4 0 .2.1.3.2.4 0 .2.2.3.4.3z"/>
</symbol>
<symbol id="icon-envelope" viewBox="0 0 26 19"><path d="M22.24 0H3.099C1.389 0 0 1.345 0 3v12.667c0 1.655 1.39 3 3.098 3h19.137c1.71 0 3.098-1.345 3.098-3V3.005C25.34 1.35 23.95 0 22.241 0zm1.683 15.667c0 .899-.754 1.63-1.682 1.63H3.098c-.928 0-1.683-.732-1.683-1.63V3.005c0-.899.755-1.63 1.683-1.63h19.137c.928 0 1.683.731 1.683 1.63v12.662h.005z"/><path d="M15.977 9.176l6.195-5.38a.673.673 0 0 0 .053-.97.728.728 0 0 0-1.001-.05l-8.544 7.425-1.667-1.441c-.005-.005-.01-.01-.01-.015a1.043 1.043 0 0 0-.116-.097L4.104 2.771a.723.723 0 0 0-1 .056.67.67 0 0 0 .057.97L9.43 9.221 3.187 14.88a.673.673 0 0 0-.031.969.722.722 0 0 0 1.001.036l6.337-5.74 1.72 1.486a.72.72 0 0 0 .943-.005l1.766-1.532 6.3 5.795a.716.716 0 0 0 .488.188.718.718 0 0 0 .514-.213.672.672 0 0 0-.026-.97l-6.222-5.719z"/>
</symbol>
<symbol id="icon-phone-call" viewBox="0 0 25 24">
<path d="M19.6 14.9c-.5-.5-1.1-.8-1.7-.8-.6 0-1.2.3-1.7.8l-1.6 1.6c-.1-.1-.3-.1-.4-.2-.2-.1-.4-.2-.5-.3-1.5-1-2.9-2.2-4.2-3.8-.6-.8-1.1-1.5-1.4-2.2.5-.4.9-.7 1.2-1.1l.4-.4c1.1-1.1 1.1-2.4 0-3.5L8.4 3.6c-.2-.2-.3-.4-.5-.5-.3-.3-.6-.6-1-.9-.4-.6-1-.8-1.7-.8-.6 0-1.2.2-1.7.7L1.8 3.9c-.6.6-1 1.4-1.1 2.4-.1 1.4.3 2.8.6 3.7.8 2.2 2 4.3 3.9 6.5 2.2 2.6 4.9 4.7 7.9 6.2 1.2.6 2.7 1.2 4.5 1.3h.3c1.2 0 2.2-.4 2.9-1.3l.9-.9.7-.7c.5-.5.8-1.1.8-1.8 0-.6-.3-1.2-.8-1.7l-2.8-2.7zm1.9 5.3l-.6.6c-.3.3-.7.6-1 1-.5.5-1.1.8-1.9.8h-.2c-1.5-.1-2.9-.7-4-1.2-2.9-1.4-5.4-3.4-7.5-5.9-1.7-2.1-2.9-4-3.7-6.1-.4-1.1-.6-2.1-.5-3.1.1-.6.3-1.1.7-1.5l1.7-1.7c.2-.2.5-.3.8-.3.3 0 .6.2.7.4.3.2.6.5.9.8l.5.5 1.4 1.4c.5.5.5 1 0 1.6-.2.1-.3.3-.4.4-.5.4-.9.9-1.3 1.2-.5.5-.4.9-.3 1.2.4.9.9 1.7 1.6 2.7 1.4 1.7 2.9 3.1 4.5 4.1l.6.3c.2.1.4.2.5.3h.1c.2.1.3.1.5.1.4 0 .7-.3.8-.3l1.7-1.7c.2-.2.4-.4.8-.4.3 0 .6.2.7.4l2.8 2.8c.6.5.6 1.1.1 1.6zM17.1 7.5c1 1 1.6 2.2 1.8 3.5.1.3.3.6.7.6h.1c.4-.1.6-.4.6-.8-.3-1.6-1-3.1-2.2-4.2-1.2-1.2-2.6-1.9-4.2-2.2-.4-.1-.7.2-.8.6-.1.4.2.7.6.8 1.3.1 2.5.8 3.4 1.7zM21 3.6C19.1 1.7 16.7.4 14 0c-.4-.1-.7.2-.8.6-.1.4.2.7.6.8 2.4.4 4.5 1.5 6.2 3.2 1.7 1.7 2.8 3.9 3.2 6.2.1.3.3.6.7.6h.1c.4-.1.6-.4.6-.8-.4-2.7-1.6-5.1-3.6-7z"/>
</symbol>
<symbol id="icon-fb" viewBox="0 0 27 27">
<path fill-rule="evenodd" clip-rule="evenodd" d="M27 13.5C27 6 21 0 13.5 0S0 6 0 13.5 6 27 13.5 27 27 21 27 13.5zM16.9 9.3h-1.7c-.5 0-.8.4-.8.9v.8h2.5l-.4 2.5h-2.1v6.7h-2.5v-6.7h-1.7V11h1.7V9.7c0-1.5.6-2.9 3-2.9h2v2.5z"/>
</symbol>
<symbol id="icon-ok" viewBox="0 0 27 26"><path d="M13.9 11c1 0 1.8-.8 1.8-1.7 0-.9-.8-1.8-1.8-1.8s-1.8.8-1.8 1.7c0 1 .8 1.8 1.8 1.8z"/><path d="M13.7 0C6.4 0 .5 5.8.5 13s5.9 13 13.2 13 13.2-5.8 13.2-13S21 0 13.7 0zm.2 4.9c2.4 0 4.3 1.9 4.3 4.3s-2 4.3-4.4 4.3c-2.4 0-4.3-1.9-4.3-4.3s2-4.3 4.4-4.3zm4.8 10c-.1.5-.3.8-.6 1-.2.1-.4.3-.7.4-.6.3-1.2.5-1.8.6-.1 0-.1 0 0 .1l1 1 1.3 1.3c.6.6.5 1.6-.3 2-.1.1-.3.1-.4.1H17c-.3 0-.5-.2-.8-.4-.8-.7-1.5-1.5-2.3-2.2-.1-.1-.1-.1-.1 0l-2.3 2.3c-.1.1-.3.2-.4.3-.1.1-.2.1-.4.1H10.4c-.5-.1-.8-.4-1-.9-.2-.5 0-.9.3-1.3l.9-.9L12 17c.1-.1.1-.1 0-.1h-.1c-.8-.2-1.6-.5-2.4-1-.3-.2-.5-.6-.5-1.1.1-.9 1.1-1.4 1.9-.9.2.1.3.2.5.2.9.4 1.8.6 2.7.6.5 0 .9-.1 1.4-.3.5-.1.8-.4 1.3-.6.7-.4 1.6-.1 1.8.6 0 .1.1.2.1.3v.2z"/>
</symbol>
<symbol id="icon-vk" viewBox="0 0 27 26">
<path d="M19.5 15.1c-1.1-1-1.2-1-.2-2.2 1.2-1.5 2.8-3.4 1.3-3.4H18c-.5 0-.6.3-.7.7-.6 1.5-1.9 3.5-2.4 3.2-.5-.3-.2-1.5-.2-3.4.1-.2 0-.5-.2-.6-.2-.2-.4-.3-.6-.3-.4-.1-.8-.2-1.2-.2-1.5 0-2.5.6-2 .7 1 .2 1 2.4.7 3.3-.4 1.7-2-1.3-2.7-2.8-.1-.3-.4-.6-.8-.6h-2c-.3 0-.6.1-.6.3 0 .4 2 4.3 3.8 6.2 1.8 1.9 3.6 1.7 4.9 1.7.2 0 .3-.1.4-.2s.2-.2.2-.4c0-1.3.5-1.9 1.3-1 1 .9 1.2 1.6 2.4 1.6h2.1c.6 0 .7-.2.7-.4.1-.4-.8-1.5-1.6-2.2zM13.9 0C21.2.2 27.1 6.1 27 13.2 26.9 20.4 20.8 26 13.5 26 6 25.9.1 20.2.1 13S6.3-.1 13.9 0z"/>
</symbol>
</svg>
