<svg xmlns="http://www.w3.org/2000/svg" viewBox="0 0 30 37"><path fill="#00B2FF" d="M26.6 12.4l1.5-1.5c.8-.8.8-2.1 0-2.9-.8-.8-2.1-.8-3 0l-1.6 1.6c-1.7-1.2-3.6-2-5.6-2.3V5.1h1.4c.4 0 .7-.3.7-.7V2.6c0-1.1-.9-2.1-2.1-2.1h-5.6c-1.2 0-2.1.9-2.1 2.1v1.8c0 .4.3.7.7.7h1.4v2.1c-2 .4-3.9 1.2-5.6 2.3L5.2 7.9c-.8-.8-2.1-.8-3 0-.8.8-.8 2.1 0 2.9l1.5 1.5C1.6 14.9.5 18.1.5 21.4c0 8 6.6 14.5 14.6 14.5 8.1 0 14.6-6.5 14.6-14.5.1-3.3-1-6.5-3.1-9zm-.5-3.5c.3-.3.7-.3 1 0 .3.3.3.7 0 1l-1.4 1.4c-.3-.3-.7-.6-1-.9l1.4-1.5zM11.7 3.7V2.6c0-.4.3-.7.7-.7H18c.4 0 .7.3.7.7v1.1h-7zm4.9 1.4V7c-.9-.1-1.9-.1-2.8 0V5.1h2.8zM3.2 9.9c-.2-.3-.2-.7 0-1 .3-.3.7-.3 1 0l1.5 1.5c-.4.3-.7.6-1 .9L3.2 9.9zm12 24.7C7.9 34.6 2 28.7 2 21.4c0-3.2 1.2-6.3 3.3-8.7.6-.7 1.2-1.3 1.9-1.8 1.8-1.3 3.8-2.2 6-2.5.7-.1 1.3-.1 2-.1s1.3 0 2 .1c2.2.3 4.3 1.2 6 2.5.7.5 1.4 1.1 1.9 1.8 2.1 2.4 3.3 5.5 3.3 8.7 0 7.3-5.9 13.2-13.2 13.2z"/><path fill="#00B2FF" d="M15.2 23.5c1.2 0 2.1-.9 2.1-2.1 0-.9-.6-1.7-1.4-2v-5c0-.4-.3-.7-.7-.7-.4 0-.7.3-.7.7v5c-.8.3-1.4 1.1-1.4 2 0 1.2.9 2.1 2.1 2.1zm0-2.7c.4 0 .7.3.7.7 0 .4-.3.7-.7.7-.4 0-.7-.3-.7-.7 0-.4.3-.7.7-.7z"/><path fill="#00B2FF" d="M22.6 14.2c0-.1 0-.1 0 0-.1-.1-.1-.1 0 0-1.3-1.3-2.8-2.2-4.5-2.7-.4-.1-.8.1-.9.5-.1.4.1.8.5.9 1.2.4 2.4 1 3.3 1.8l-.5.5c-.3.3-.3.7 0 1 .1.1.3.2.5.2s.4-.1.5-.2l.5-.5c1.3 1.5 2 3.3 2.2 5.2h-.7c-.4 0-.7.3-.7.7 0 .4.3.7.7.7h.7c-.1 1.9-.9 3.7-2.2 5.2l-.5-.5c-.3-.3-.7-.3-1 0-.3.3-.3.7 0 1l.5.5c-1.5 1.3-3.3 2-5.2 2.1v-.7c0-.4-.3-.7-.7-.7-.4 0-.7.3-.7.7v.7c-1.9-.1-3.7-.9-5.2-2.1l.5-.5c.3-.3.3-.7 0-1-.3-.3-.7-.3-1 0l-.5.5c-1.3-1.5-2-3.3-2.2-5.2h.7c.4 0 .7-.3.7-.7 0-.4-.3-.7-.7-.7h-.6c.1-1.9.9-3.7 2.2-5.2l.5.5c.1.1.3.2.5.2s.4-.1.5-.2c.3-.3.3-.7 0-1l-.5-.5c1-.8 2.1-1.4 3.3-1.8.4-.1.6-.5.5-.9-.1-.4-.5-.6-.9-.5-1.6.5-3.2 1.4-4.4 2.6-2 2-3 4.6-3 7.3 0 2.8 1.1 5.3 3 7.3 2 1.9 4.6 3 7.4 3 2.8 0 5.4-1.1 7.4-3 2-2 3-4.6 3-7.3s-1.1-5.3-3-7.2z"/><path fill="#00B2FF" d="M15.2 12.5c.4 0 .7-.3.7-.7s-.3-.7-.7-.7c-.4 0-.7.3-.7.7s.3.7.7.7z"/></svg>