<svg xmlns="http://www.w3.org/2000/svg" viewBox="0 0 25 24"><path fill="#00B2FF" d="M19.6 14.9c-.5-.5-1.1-.8-1.7-.8-.6 0-1.2.3-1.7.8l-1.6 1.6c-.1-.1-.3-.1-.4-.2-.2-.1-.4-.2-.5-.3-1.5-1-2.9-2.2-4.2-3.8-.6-.8-1.1-1.5-1.4-2.2.5-.4.9-.7 1.2-1.1l.4-.4c1.1-1.1 1.1-2.4 0-3.5L8.4 3.6c-.2-.2-.3-.4-.5-.5-.3-.3-.6-.6-1-.9-.4-.6-1-.8-1.7-.8-.6 0-1.2.2-1.7.7L1.8 3.9c-.6.6-1 1.4-1.1 2.4-.1 1.4.3 2.8.6 3.7.8 2.2 2 4.3 3.9 6.5 2.2 2.6 4.9 4.7 7.9 6.2 1.2.6 2.7 1.2 4.5 1.3h.3c1.2 0 2.2-.4 2.9-1.3l.9-.9.7-.7c.5-.5.8-1.1.8-1.8 0-.6-.3-1.2-.8-1.7l-2.8-2.7zm1.9 5.3l-.6.6c-.3.3-.7.6-1 1-.5.5-1.1.8-1.9.8h-.2c-1.5-.1-2.9-.7-4-1.2-2.9-1.4-5.4-3.4-7.5-5.9-1.7-2.1-2.9-4-3.7-6.1-.4-1.1-.6-2.1-.5-3.1.1-.6.3-1.1.7-1.5l1.7-1.7c.2-.2.5-.3.8-.3.3 0 .6.2.7.4.3.2.6.5.9.8l.5.5 1.4 1.4c.5.5.5 1 0 1.6-.2.1-.3.3-.4.4-.5.4-.9.9-1.3 1.2-.5.5-.4.9-.3 1.2.4.9.9 1.7 1.6 2.7 1.4 1.7 2.9 3.1 4.5 4.1l.6.3c.2.1.4.2.5.3h.1c.2.1.3.1.5.1.4 0 .7-.3.8-.3l1.7-1.7c.2-.2.4-.4.8-.4.3 0 .6.2.7.4l2.8 2.8c.6.5.6 1.1.1 1.6zM17.1 7.5c1 1 1.6 2.2 1.8 3.5.1.3.3.6.7.6h.1c.4-.1.6-.4.6-.8-.3-1.6-1-3.1-2.2-4.2-1.2-1.2-2.6-1.9-4.2-2.2-.4-.1-.7.2-.8.6-.1.4.2.7.6.8 1.3.1 2.5.8 3.4 1.7zM21 3.6C19.1 1.7 16.7.4 14 0c-.4-.1-.7.2-.8.6-.1.4.2.7.6.8 2.4.4 4.5 1.5 6.2 3.2 1.7 1.7 2.8 3.9 3.2 6.2.1.3.3.6.7.6h.1c.4-.1.6-.4.6-.8-.4-2.7-1.6-5.1-3.6-7z"/></svg>